<?xml version="1.0" standalone="no"?>
<!DOCTYPE svg PUBLIC "-//W3C//DTD SVG 20010904//EN"
 "http://www.w3.org/TR/2001/REC-SVG-20010904/DTD/svg10.dtd">
<svg version="1.0" xmlns="http://www.w3.org/2000/svg"
 width="300.000000pt" height="300.000000pt" viewBox="0 0 300.000000 300.000000"
 preserveAspectRatio="xMidYMid meet">
<metadata>
Created by potrace 1.11, written by Peter Selinger 2001-2013
</metadata>
<g transform="translate(0.000000,300.000000) scale(0.100000,-0.100000)"
fill="#000000" stroke="none">
<path d="M2006 2554 c-237 -46 -359 -204 -393 -509 -9 -72 -9 -1030 0 -1075 2
-14 7 -45 11 -70 19 -120 79 -251 145 -319 51 -52 146 -103 226 -119 28 -6 95
-10 150 -9 83 2 109 7 156 29 77 35 133 88 168 160 33 66 37 63 46 -27 3 -33
7 -69 10 -80 2 -11 4 -29 4 -41 1 -19 7 -20 94 -20 l92 1 0 508 c1 303 -3 511
-8 514 -8 5 -444 8 -504 4 -10 -1 -13 -28 -13 -101 0 -88 2 -100 18 -101 9 -1
68 -1 130 -1 l113 1 -2 -156 c-4 -253 -40 -371 -132 -427 -42 -26 -60 -30
-131 -32 -100 -4 -144 8 -195 53 -44 37 -76 115 -88 218 -14 111 -9 1103 5
1173 12 58 37 116 65 150 40 50 176 76 276 54 125 -28 170 -107 176 -315 2
-62 4 -117 5 -122 0 -7 48 -11 136 -11 l136 1 -5 120 c-7 139 -18 208 -49 285
-73 186 -211 268 -463 275 -65 1 -138 -3 -179 -11z"/>
<path d="M296 2541 c-3 -4 -5 -471 -5 -1037 l-1 -1030 123 1 122 0 1 698 c1
384 4 701 8 704 3 3 6 -1 6 -9 0 -14 17 -56 88 -218 8 -19 32 -75 52 -125 59
-142 200 -477 215 -510 7 -16 57 -133 110 -260 54 -126 103 -241 109 -255 11
-25 14 -26 104 -26 l92 0 0 1038 0 1038 -120 0 c-118 0 -120 0 -121 -22 0 -13
-1 -321 -1 -686 -1 -364 -2 -661 -4 -660 -1 2 -37 84 -79 183 -42 99 -83 194
-90 210 -8 17 -80 185 -160 375 -81 190 -155 363 -165 385 -10 22 -34 79 -55
127 l-37 87 -94 -1 c-52 0 -96 -3 -98 -7z"/>
</g>
</svg>
